<svg width="120" height="96" viewBox="0 0 120 96" fill="none" xmlns="http://www.w3.org/2000/svg">
<path fill-rule="evenodd" clip-rule="evenodd" d="M0.893611 4.50458C0 6.26935 0 8.57956 0 13.2V71.0105C0 75.6309 0 77.9411 0.893611 79.7059C1.67965 81.2582 2.9339 82.5203 4.4766 83.3113C6.23041 84.2105 8.52628 84.2105 13.118 84.2105H106.882C111.474 84.2105 113.77 84.2105 115.523 83.3113C117.066 82.5203 118.32 81.2582 119.106 79.7059C120 77.9411 120 75.6309 120 71.0105V13.2C120 8.57956 120 6.26935 119.106 4.50458C118.32 2.95224 117.066 1.69015 115.523 0.899196C113.77 0 111.474 0 106.882 0H13.118C8.52628 0 6.23041 0 4.4766 0.899196C2.9339 1.69015 1.67965 2.95224 0.893611 4.50458ZM6.85634 11.2414C5.96273 13.0062 5.96273 15.3164 5.96273 19.9368V63.4315C5.96273 68.052 5.96273 70.3622 6.85634 72.127C7.64239 73.6793 8.89664 74.9414 10.4393 75.7324C12.1931 76.6315 14.489 76.6315 19.0807 76.6315H100.919C105.511 76.6315 107.807 76.6315 109.561 75.7324C111.103 74.9414 112.358 73.6793 113.144 72.127C114.037 70.3622 114.037 68.052 114.037 63.4315V19.9368C114.037 15.3164 114.037 13.0062 113.144 11.2414C112.358 9.68908 111.103 8.42699 109.561 7.63603C107.807 6.73684 105.511 6.73684 100.919 6.73684H19.0807C14.489 6.73684 12.1931 6.73684 10.4393 7.63603C8.89664 8.42699 7.64239 9.68908 6.85634 11.2414Z" fill="#0572A7"/>
<path d="M53.6646 82.5263H66.3354V89.2632H53.6646V82.5263Z" fill="#0572A7"/>
<path d="M32.0497 92.6316C32.0497 90.7712 33.5484 89.2632 35.3972 89.2632H84.6028C86.4516 89.2632 87.9503 90.7712 87.9503 92.6316C87.9503 94.4919 86.4516 96 84.6028 96H35.3972C33.5484 96 32.0497 94.4919 32.0497 92.6316Z" fill="#0572A7"/>
</svg>
