<svg width="69" height="97" viewBox="0 0 69 97" fill="none" xmlns="http://www.w3.org/2000/svg">
<path d="M34.0153 82.3579C36.7108 82.3579 38.896 80.1727 38.896 77.4772C38.896 74.7816 36.7108 72.5964 34.0153 72.5964C31.3197 72.5964 29.1345 74.7816 29.1345 77.4772C29.1345 80.1727 31.3197 82.3579 34.0153 82.3579Z" fill="#0572A7"/>
<path d="M57.0854 97H10.9428C7.88068 96.8173 5.01457 95.4328 2.96803 93.1477C0.92149 90.8626 -0.139884 87.8618 0.0148207 84.7981V12.2019C-0.139884 9.1382 0.92149 6.13738 2.96803 3.85227C5.01457 1.56717 7.88068 0.182673 10.9428 0H57.0854C60.1475 0.182673 63.0137 1.56717 65.0602 3.85227C67.1068 6.13738 68.1681 9.1382 68.0134 12.2019V84.7981C68.1681 87.8618 67.1068 90.8626 65.0602 93.1477C63.0137 95.4328 60.1475 96.8173 57.0854 97ZM10.9428 4.88075C9.17739 5.06722 7.55539 5.93826 6.42484 7.30697C5.29429 8.67568 4.74526 10.433 4.89557 12.2019V84.7981C4.74526 86.567 5.29429 88.3243 6.42484 89.693C7.55539 91.0617 9.17739 91.9328 10.9428 92.1193H57.0854C58.8508 91.9328 60.4729 91.0617 61.6034 89.693C62.734 88.3243 63.283 86.567 63.1327 84.7981V12.2019C63.283 10.433 62.734 8.67568 61.6034 7.30697C60.4729 5.93826 58.8508 5.06722 57.0854 4.88075H10.9428Z" fill="#0572A7"/>
</svg>
