<svg width="30" height="30" viewBox="0 0 30 30" fill="none" xmlns="http://www.w3.org/2000/svg">
<path d="M29.985 6.82084C29.9725 6.17727 29.9209 5.53505 29.8305 4.89774C29.7227 4.33087 29.5396 3.78096 29.286 3.26266C28.7308 2.16656 27.8407 1.27593 26.745 0.720036C26.2301 0.467592 25.6837 0.284973 25.1205 0.177009C24.4783 0.0847281 23.8311 0.0321257 23.1825 0.019501C22.908 0.00900047 22.5525 0.00450026 22.3875 0.00450026L7.6155 0C7.4505 0 7.095 0.00450021 6.8205 0.0150007C6.17696 0.0274013 5.53477 0.0789993 4.8975 0.169508C4.33065 0.277274 3.78077 0.460408 3.2625 0.714036C2.16651 1.26936 1.27595 2.15945 0.72 3.25516C0.467635 3.77016 0.285028 4.3165 0.177 4.87974C0.0843049 5.5219 0.0312046 6.16916 0.0180001 6.81784C0.00900013 7.09235 0.00300014 7.44787 0.00300014 7.61288L0 22.3856C0 22.5506 0.00449998 22.9061 0.015 23.1807C0.0273999 23.8242 0.0789954 24.4665 0.1695 25.1038C0.277277 25.6706 0.460401 26.2205 0.714 26.7388C1.2693 27.8349 2.15934 28.7255 3.255 29.2815C3.76999 29.5338 4.31629 29.7164 4.8795 29.8245C5.52165 29.9168 6.16888 29.9694 6.8175 29.982C7.092 29.9925 7.4475 29.997 7.6125 29.997L22.3845 30C22.5495 30 22.905 29.9955 23.1795 29.985C23.823 29.9726 24.4652 29.921 25.1025 29.8305C25.6693 29.7227 26.2192 29.5395 26.7375 29.286C27.834 28.7309 28.7252 27.8408 29.2815 26.7448C29.5339 26.2299 29.7165 25.6835 29.8245 25.1203C29.9172 24.4781 29.9703 23.8308 29.9835 23.1822C29.9925 22.9076 29.9985 22.5521 29.9985 22.3871L30 7.61588C30 7.45087 29.9955 7.09535 29.985 6.82084ZM15.3255 25.4368H15.321C13.5355 25.4364 11.7785 24.9888 10.2105 24.1347L4.5405 25.6213L6.0585 20.0815C4.88318 18.0419 4.41356 15.6714 4.72245 13.3377C5.03134 11.004 6.10148 8.83744 7.76696 7.17386C9.43244 5.51027 11.6002 4.44265 13.9342 4.13653C16.2681 3.8304 18.6379 4.30286 20.676 5.48066C22.7141 6.65847 24.3067 8.47581 25.207 10.6509C26.1072 12.826 26.2647 15.2374 25.6551 17.5112C25.0455 19.7849 23.7028 21.794 21.8352 23.227C19.9676 24.6599 17.6794 25.4367 15.3255 25.4368Z" fill="#E1E574"/>
<path d="M15.3299 5.8516C13.7415 5.85113 12.182 6.27623 10.8136 7.08269C9.44513 7.88915 8.31772 9.04751 7.54859 10.4373C6.77946 11.8271 6.39669 13.3976 6.44009 14.9855C6.48349 16.5733 6.95147 18.1206 7.79537 19.4663L8.00687 19.8023L7.10837 23.0815L10.4729 22.1994L10.7969 22.3914C12.1665 23.2026 13.7291 23.6306 15.3209 23.6305H15.3254C17.6831 23.6309 19.9444 22.6946 21.6118 21.0277C23.2792 19.3607 24.2162 17.0996 24.2166 14.7418C24.217 12.384 23.2808 10.1226 21.6139 8.45504C19.9471 6.78752 17.6861 5.8505 15.3284 5.8501L15.3299 5.8516ZM20.5559 18.5572C20.3593 18.882 20.0976 19.1625 19.7873 19.3811C19.477 19.5998 19.1248 19.7519 18.7529 19.8278C18.1913 19.9241 17.6151 19.8882 17.0699 19.7228C16.5528 19.5617 16.0446 19.3734 15.5474 19.1588C13.702 18.2326 12.129 16.8426 10.9829 15.1251C10.3576 14.33 9.97811 13.3696 9.89087 12.3619C9.88366 11.946 9.96317 11.5331 10.1243 11.1496C10.2855 10.766 10.5247 10.4203 10.8269 10.1343C10.9162 10.0324 11.0255 9.95015 11.1482 9.89258C11.2708 9.83501 11.404 9.80342 11.5394 9.79979C11.7164 9.79979 11.8949 9.79979 12.0509 9.80879C12.2159 9.8163 12.4349 9.74579 12.6509 10.2678C12.8759 10.8018 13.4099 12.1174 13.4759 12.2509C13.5182 12.3209 13.5425 12.4004 13.5464 12.4821C13.5503 12.5638 13.5338 12.6452 13.4984 12.7189C13.4311 12.8794 13.3412 13.0295 13.2314 13.1645C13.0964 13.3205 12.9509 13.5125 12.8309 13.6325C12.6959 13.766 12.5579 13.91 12.7124 14.177C13.1137 14.8641 13.6146 15.4879 14.1989 16.0281C14.8328 16.5918 15.5602 17.0405 16.3484 17.3542C16.6154 17.4892 16.7714 17.4652 16.9274 17.2867C17.0834 17.1082 17.5949 16.5066 17.7734 16.2396C17.9519 15.9726 18.1289 16.0176 18.3734 16.1061C18.6179 16.1946 19.9334 16.8411 20.2004 16.9762C20.4674 17.1112 20.6459 17.1757 20.7119 17.2867C20.785 17.7163 20.7308 18.158 20.5559 18.5572Z" fill="#E1E574"/>
</svg>
